<svg xmlns="http://www.w3.org/2000/svg">
    <symbol id="search" viewBox="0 0 15 15">
        <path
            d="M10.865 10.2191L13.75 13.125M12.4167 6.45833C12.4167 9.40387 10.0289 11.7917 7.08333 11.7917C4.13781 11.7917 1.75 9.40387 1.75 6.45833C1.75 3.51281 4.13781 1.125 7.08333 1.125C10.0289 1.125 12.4167 3.51281 12.4167 6.45833Z"
            stroke="currentColor" fill="none" stroke-width="2" stroke-linecap="round" stroke-linejoin="round" />
    </symbol>

    <symbol id="arrow-right" viewBox="0 0 21 20">
        <path fill-rule="evenodd" clip-rule="evenodd"
            d="M0.264404 10.154C0.264404 10.7062 0.712124 11.1539 1.2644 11.1539H17.2402C17.1546 11.3022 17.0483 11.4418 16.9215 11.5686L10.5576 17.9326C10.167 18.3231 10.167 18.9563 10.5576 19.3468C10.9481 19.7373 11.5813 19.7373 11.9718 19.3468L20.4571 10.8615C20.8476 10.471 20.8476 9.83777 20.4571 9.44727L11.9716 0.961835C11.5811 0.571315 10.9479 0.571315 10.5574 0.961835C10.1669 1.35237 10.1669 1.98553 10.5574 2.37606L16.9215 8.74017C17.0481 8.86677 17.1541 9.00597 17.2397 9.15396H1.2644C0.712124 9.15386 0.264404 9.60167 0.264404 10.154Z"
            fill="currentColor" />
    </symbol>

    <symbol id="google" viewBox="0 0 21 21">
        <path
            d="M20.2458 8.91943H19.4403V8.87793H10.4403V12.8779H16.0918C15.2673 15.2064 13.0518 16.8779 10.4403 16.8779C7.12681 16.8779 4.44031 14.1914 4.44031 10.8779C4.44031 7.56443 7.12681 4.87793 10.4403 4.87793C11.9698 4.87793 13.3613 5.45493 14.4208 6.39743L17.2493 3.56893C15.4633 1.90443 13.0743 0.87793 10.4403 0.87793C4.91781 0.87793 0.440308 5.35543 0.440308 10.8779C0.440308 16.4004 4.91781 20.8779 10.4403 20.8779C15.9628 20.8779 20.4403 16.4004 20.4403 10.8779C20.4403 10.2074 20.3713 9.55293 20.2458 8.91943Z"
            fill="#FFC107" />
        <path
            d="M1.59338 6.22343L4.87888 8.63293C5.76788 6.43193 7.92088 4.87793 10.4404 4.87793C11.9699 4.87793 13.3614 5.45493 14.4209 6.39743L17.2494 3.56893C15.4634 1.90443 13.0744 0.87793 10.4404 0.87793C6.59938 0.87793 3.26838 3.04643 1.59338 6.22343Z"
            fill="#FF3D00" />
        <path
            d="M10.4403 20.878C13.0233 20.878 15.3703 19.8895 17.1448 18.282L14.0498 15.663C13.0121 16.4522 11.7441 16.8791 10.4403 16.878C7.83934 16.878 5.63084 15.2195 4.79884 12.905L1.53784 15.4175C3.19284 18.656 6.55384 20.878 10.4403 20.878Z"
            fill="#4CAF50" />
        <path
            d="M20.2458 8.91943H19.4403V8.87793H10.4403V12.8779H16.0918C15.6974 13.9861 14.987 14.9545 14.0483 15.6634L14.0498 15.6624L17.1448 18.2814C16.9258 18.4804 20.4403 15.8779 20.4403 10.8779C20.4403 10.2074 20.3713 9.55293 20.2458 8.91943Z"
            fill="#1976D2" />
    </symbol>

    <svg id="play" viewBox="0 0 36 36">
        <path fill="currentColor"
            d="M7 7.29c0-1.5 1.59-2.466 2.92-1.776l20.656 10.71c1.439.747 1.439 2.805 0 3.552L9.92 30.486C8.589 31.176 7 30.21 7 28.71V7.29Z">
        </path>
    </svg>
</svg>