<svg xmlns="http://www.w3.org/2000/svg">
    <symbol id="search" viewBox="0 0 15 15">
        <path
            d="M10.865 10.2191L13.75 13.125M12.4167 6.45833C12.4167 9.40387 10.0289 11.7917 7.08333 11.7917C4.13781 11.7917 1.75 9.40387 1.75 6.45833C1.75 3.51281 4.13781 1.125 7.08333 1.125C10.0289 1.125 12.4167 3.51281 12.4167 6.45833Z"
            stroke="currentColor" fill="none" stroke-width="2" stroke-linecap="round" stroke-linejoin="round" />
    </symbol>

    <symbol id="arrow-right" viewBox="0 0 21 20">
        <path fill-rule="evenodd" clip-rule="evenodd"
            d="M0.264404 10.154C0.264404 10.7062 0.712124 11.1539 1.2644 11.1539H17.2402C17.1546 11.3022 17.0483 11.4418 16.9215 11.5686L10.5576 17.9326C10.167 18.3231 10.167 18.9563 10.5576 19.3468C10.9481 19.7373 11.5813 19.7373 11.9718 19.3468L20.4571 10.8615C20.8476 10.471 20.8476 9.83777 20.4571 9.44727L11.9716 0.961835C11.5811 0.571315 10.9479 0.571315 10.5574 0.961835C10.1669 1.35237 10.1669 1.98553 10.5574 2.37606L16.9215 8.74017C17.0481 8.86677 17.1541 9.00597 17.2397 9.15396H1.2644C0.712124 9.15386 0.264404 9.60167 0.264404 10.154Z"
            fill="currentColor" />
    </symbol>
</svg>