<svg xmlns="http://www.w3.org/2000/svg">
    <symbol id="search" viewBox="0 0 15 15">
        <path
            d="M10.865 10.2191L13.75 13.125M12.4167 6.45833C12.4167 9.40387 10.0289 11.7917 7.08333 11.7917C4.13781 11.7917 1.75 9.40387 1.75 6.45833C1.75 3.51281 4.13781 1.125 7.08333 1.125C10.0289 1.125 12.4167 3.51281 12.4167 6.45833Z"
            stroke="currentColor" fill="none" stroke-width="2" stroke-linecap="round" stroke-linejoin="round" />
    </symbol>

    <symbol id="arrow-right" viewBox="0 0 21 20">
        <path fill-rule="evenodd" clip-rule="evenodd"
            d="M0.264404 10.154C0.264404 10.7062 0.712124 11.1539 1.2644 11.1539H17.2402C17.1546 11.3022 17.0483 11.4418 16.9215 11.5686L10.5576 17.9326C10.167 18.3231 10.167 18.9563 10.5576 19.3468C10.9481 19.7373 11.5813 19.7373 11.9718 19.3468L20.4571 10.8615C20.8476 10.471 20.8476 9.83777 20.4571 9.44727L11.9716 0.961835C11.5811 0.571315 10.9479 0.571315 10.5574 0.961835C10.1669 1.35237 10.1669 1.98553 10.5574 2.37606L16.9215 8.74017C17.0481 8.86677 17.1541 9.00597 17.2397 9.15396H1.2644C0.712124 9.15386 0.264404 9.60167 0.264404 10.154Z"
            fill="currentColor" />
    </symbol>

    <symbol id="google" viewBox="0 0 21 21">
        <path
            d="M20.2458 8.91943H19.4403V8.87793H10.4403V12.8779H16.0918C15.2673 15.2064 13.0518 16.8779 10.4403 16.8779C7.12681 16.8779 4.44031 14.1914 4.44031 10.8779C4.44031 7.56443 7.12681 4.87793 10.4403 4.87793C11.9698 4.87793 13.3613 5.45493 14.4208 6.39743L17.2493 3.56893C15.4633 1.90443 13.0743 0.87793 10.4403 0.87793C4.91781 0.87793 0.440308 5.35543 0.440308 10.8779C0.440308 16.4004 4.91781 20.8779 10.4403 20.8779C15.9628 20.8779 20.4403 16.4004 20.4403 10.8779C20.4403 10.2074 20.3713 9.55293 20.2458 8.91943Z"
            fill="#FFC107" />
        <path
            d="M1.59338 6.22343L4.87888 8.63293C5.76788 6.43193 7.92088 4.87793 10.4404 4.87793C11.9699 4.87793 13.3614 5.45493 14.4209 6.39743L17.2494 3.56893C15.4634 1.90443 13.0744 0.87793 10.4404 0.87793C6.59938 0.87793 3.26838 3.04643 1.59338 6.22343Z"
            fill="#FF3D00" />
        <path
            d="M10.4403 20.878C13.0233 20.878 15.3703 19.8895 17.1448 18.282L14.0498 15.663C13.0121 16.4522 11.7441 16.8791 10.4403 16.878C7.83934 16.878 5.63084 15.2195 4.79884 12.905L1.53784 15.4175C3.19284 18.656 6.55384 20.878 10.4403 20.878Z"
            fill="#4CAF50" />
        <path
            d="M20.2458 8.91943H19.4403V8.87793H10.4403V12.8779H16.0918C15.6974 13.9861 14.987 14.9545 14.0483 15.6634L14.0498 15.6624L17.1448 18.2814C16.9258 18.4804 20.4403 15.8779 20.4403 10.8779C20.4403 10.2074 20.3713 9.55293 20.2458 8.91943Z"
            fill="#1976D2" />
    </symbol>

    <symbol id="play" viewBox="0 0 36 36">
        <path fill="currentColor"
            d="M7 7.29c0-1.5 1.59-2.466 2.92-1.776l20.656 10.71c1.439.747 1.439 2.805 0 3.552L9.92 30.486C8.589 31.176 7 30.21 7 28.71V7.29Z">
        </path>
    </symbol>

    <symbol id="diamond" viewBox="0 0 19 21">
        <path
            d="M10.1135 0.785664C10.2382 1.06632 10.3631 1.34682 10.4968 1.62338C12.1368 5.01632 14.7205 7.86446 17.9371 9.82636C18.1338 9.94636 18.3329 10.063 18.5344 10.1764C18.8119 10.3324 18.8119 10.7321 18.5344 10.8881C18.3329 11.0015 18.1338 11.1181 17.9371 11.2382C14.7205 13.2 12.1368 16.0482 10.4968 19.4411C10.3631 19.7176 10.2382 19.9981 10.1135 20.2789C9.96325 20.6167 9.4837 20.6167 9.33347 20.2789C9.20875 19.9981 9.0839 19.7176 8.95016 19.4411C7.31012 16.0482 4.72642 13.2 1.50987 11.2382C1.31312 11.1181 1.11402 11.0015 0.912614 10.8881C0.635086 10.7321 0.635086 10.3324 0.912614 10.1764C1.11402 10.063 1.31312 9.94636 1.50987 9.82636C4.72642 7.86446 7.31012 5.01632 8.95016 1.62338C9.08364 1.34725 9.20875 1.06641 9.33347 0.785664C9.4837 0.447747 9.96325 0.447747 10.1135 0.785664Z"
            fill="currentColor" />
    </symbol>
    <symbol id="star" viewBox="0 0 11 10">
        <path
            d="M5.54704 0.516428C5.67794 0.222746 5.74342 0.0759049 5.83457 0.0306861C5.91373 -0.00860111 6.00669 -0.00860111 6.08585 0.0306861C6.177 0.0759049 6.24248 0.222746 6.37338 0.516428L7.41607 2.85564C7.4548 2.94246 7.47414 2.98587 7.50411 3.01911C7.53057 3.04853 7.56297 3.07205 7.5991 3.08816C7.63998 3.10637 7.68725 3.11135 7.7818 3.12133L10.3287 3.39015C10.6485 3.42389 10.8084 3.44077 10.8795 3.51348C10.9413 3.57663 10.9701 3.66507 10.9572 3.75251C10.9424 3.85316 10.8229 3.96076 10.5841 4.17603L8.68154 5.89058C8.61097 5.95419 8.57563 5.98602 8.55329 6.02476C8.5335 6.05908 8.52112 6.09713 8.51699 6.13649C8.5123 6.18099 8.52214 6.22747 8.54187 6.32049L9.07328 8.82581C9.14 9.14037 9.17336 9.29762 9.1262 9.38775C9.08521 9.46612 9.01 9.52074 8.92287 9.5355C8.82256 9.55247 8.68329 9.47217 8.40475 9.31153L6.18622 8.03192C6.10389 7.98443 6.06273 7.96073 6.01896 7.9514C5.98023 7.9432 5.94019 7.9432 5.90146 7.9514C5.85769 7.96073 5.81653 7.98443 5.7342 8.03192L3.51568 9.31153C3.23715 9.47217 3.09789 9.55247 2.99757 9.5355C2.91043 9.52074 2.83521 9.46612 2.79425 9.38775C2.74709 9.29762 2.78045 9.14037 2.84717 8.82581L3.37855 6.32049C3.39827 6.22747 3.40813 6.18099 3.40345 6.13649C3.39931 6.09713 3.38694 6.05908 3.36715 6.02476C3.34479 5.98602 3.30948 5.95419 3.23887 5.89058L1.33636 4.17603C1.09751 3.96076 0.978081 3.85316 0.963232 3.75251C0.95034 3.66507 0.979071 3.57663 1.0409 3.51348C1.11208 3.44077 1.27195 3.42389 1.59172 3.39015L4.13865 3.12133C4.23318 3.11135 4.28044 3.10637 4.32131 3.08816C4.35747 3.07205 4.38985 3.04853 4.41635 3.01911C4.44629 2.98587 4.46564 2.94246 4.50434 2.85564L5.54704 0.516428Z"
            fill="currentColor" />
    </symbol>

    <symbol id="open">
        <path fill-rule="evenodd" clip-rule="evenodd"
            d="M1.72155 9.57438C1.5809 9.71503 1.39014 9.79405 1.19122 9.79405C0.992311 9.79405 0.801545 9.71503 0.660893 9.57438C0.520241 9.43373 0.441223 9.24296 0.441223 9.04405C0.441223 8.84514 0.520241 8.65437 0.660893 8.51372L6.82474 2.34987H2.6811C2.48447 2.34655 2.29701 2.26613 2.1591 2.12593C2.02119 1.98574 1.94386 1.79699 1.94377 1.60033C1.94368 1.40368 2.02083 1.21485 2.15861 1.07453C2.29638 0.934203 2.48376 0.853606 2.68039 0.850098H9.38376L9.38447 7.55418C9.38802 7.65483 9.37127 7.75517 9.3352 7.84921C9.29913 7.94325 9.24449 8.02906 9.17454 8.10153C9.10459 8.17399 9.02076 8.23162 8.92805 8.27099C8.83534 8.31035 8.73565 8.33063 8.63494 8.33063C8.53422 8.33063 8.43453 8.31035 8.34182 8.27099C8.24911 8.23162 8.16528 8.17399 8.09533 8.10153C8.02538 8.02906 7.97074 7.94325 7.93467 7.84921C7.89861 7.75517 7.88185 7.65483 7.8854 7.55418L7.8854 3.41053L1.72085 9.57509L1.72155 9.57438Z"
            fill="currentColor" />
    </symbol>
</svg>