<svg xmlns="http://www.w3.org/2000/svg" width="15" height="15" viewBox="0 0 15 15" fill="none">
    <style>
        path {
            fill: black;
        }

        @media (prefers-color-scheme: dark) {
            path {
                fill: white;
            }
        }
    </style>
    <path
        d="M8.31733 2.61103C8.49529 4.20274 8.57006 4.87153 8.84788 4.96806C9.04919 5.03801 9.35713 4.80747 9.88821 4.40987L9.99972 4.32645C10.6687 3.79679 11.2575 3.45252 11.3378 3.50549C11.3913 3.58493 11.0702 4.11459 10.6152 4.6972C10.1335 5.3063 9.81239 5.88892 9.89268 6.02133C9.97296 6.12726 10.8026 6.33912 11.7124 6.41857C12.6491 6.5245 13.7463 6.6834 14.2012 6.76284C14.8702 6.92174 14.9238 6.94822 14.4688 7.1336C14.1744 7.23953 13.1308 7.39843 12.1674 7.50436C9.62506 7.76918 9.49126 7.92808 10.5617 9.22572C11.0434 9.83482 11.3913 10.3645 11.3378 10.4439C11.2575 10.4969 10.6687 10.1261 9.97296 9.62296L8.76871 8.69607L8.60814 9.43758C8.52786 9.83482 8.39406 10.6823 8.31377 11.3443C8.24099 11.9446 8.10221 12.719 8.0171 13.1939L8.01706 13.1941L7.99264 13.3305L7.83208 14.125L7.61799 13.3835C7.51094 12.9862 7.32362 11.874 7.24333 10.9206C7.13629 9.99372 6.94896 9.14628 6.81515 9.06683C6.68135 8.98738 6.09261 9.30517 5.4771 9.78186C4.88836 10.2321 4.35314 10.5499 4.27285 10.4969C4.21933 10.4174 4.59399 9.80834 5.10245 9.14628L6.03908 7.92808L5.18273 7.76918C4.99493 7.73821 4.70135 7.69515 4.35753 7.64473L4.35715 7.64468L4.35689 7.64464L4.35687 7.64464C3.81894 7.56575 3.15813 7.46885 2.58691 7.37194C1.65027 7.23953 0.820678 7.08063 0.767157 7.00119C0.713632 6.94822 1.73056 6.76284 3.01508 6.57747C4.29961 6.39209 5.4771 6.12726 5.61091 6.02133C5.74471 5.9154 5.45034 5.33278 4.96864 4.72368C4.48694 4.14107 4.16581 3.58493 4.21933 3.50549C4.29961 3.45252 4.91512 3.82328 5.58415 4.32645L5.61471 4.34971L5.61473 4.34972C6.21554 4.80714 6.54633 5.05899 6.75357 4.9826C7.00745 4.88902 7.07593 4.30286 7.22828 2.99866L7.22828 2.99863L7.24333 2.8699C7.64475 -0.599313 7.96588 -0.784691 8.28701 2.34025L8.31733 2.61103Z"
        fill="#0016EC" />
</svg>