<svg xmlns="http://www.w3.org/2000/svg" width="21" height="21" viewBox="0 0 21 21" fill="none">
    <style>
        path {
            fill: black;
        }

        @media (prefers-color-scheme: dark) {
            path {
                fill: white;
            }
        }
    </style>
    <path
        d="M11.554 4.03755C11.8082 6.31143 11.915 7.26685 12.3119 7.40475C12.5995 7.50468 13.0394 7.17533 13.7981 6.60732L13.9574 6.48815C14.9131 5.7315 15.7542 5.23969 15.8689 5.31535C15.9454 5.42884 15.4866 6.18549 14.8367 7.0178C14.1485 7.88794 13.6898 8.72025 13.8045 8.90941C13.9192 9.06075 15.1043 9.3634 16.4041 9.4769C17.7422 9.62823 19.3096 9.85522 19.9595 9.96872C20.9153 10.1957 20.9917 10.2335 20.3418 10.4984C19.9213 10.6497 18.4303 10.8767 17.054 11.028C13.4222 11.4063 13.231 11.6333 14.7602 13.4871C15.4484 14.3573 15.9454 15.1139 15.8689 15.2274C15.7542 15.3031 14.9131 14.7734 13.9192 14.0546L12.1988 12.7305L11.9694 13.7898C11.8547 14.3573 11.6636 15.5679 11.5489 16.5137C11.4449 17.3712 11.2467 18.4775 11.1251 19.1559L11.125 19.1562L11.0901 19.3511L10.8608 20.4861L10.5549 19.4268C10.402 18.8593 10.1344 17.2703 10.0197 15.9084C9.86678 14.5843 9.59917 13.3736 9.40802 13.2601C9.21687 13.1466 8.37581 13.6006 7.49652 14.2816C6.65546 14.9247 5.89085 15.3787 5.77616 15.3031C5.6997 15.1896 6.23492 14.3194 6.9613 13.3736L8.29935 11.6333L7.07598 11.4063C6.80769 11.3621 6.3883 11.3006 5.89713 11.2286L5.89659 11.2285L5.89621 11.2284C5.12773 11.1157 4.18371 10.9773 3.36767 10.8389C2.02961 10.6497 0.844481 10.4227 0.768022 10.3092C0.691559 10.2335 2.14431 9.96872 3.97935 9.70389C5.81439 9.43907 7.49652 9.06075 7.68767 8.90941C7.87882 8.75808 7.45828 7.92577 6.77014 7.05563C6.082 6.22332 5.62324 5.42884 5.6997 5.31535C5.81439 5.23969 6.69369 5.76933 7.64944 6.48815L7.6931 6.52139L7.69312 6.5214C8.55142 7.17486 9.02398 7.53464 9.32004 7.42551C9.68273 7.29182 9.78055 6.45446 9.9982 4.59131L9.9982 4.59127L10.0197 4.40738C10.5932 -0.548649 11.0519 -0.813475 11.5107 3.65073L11.554 4.03755Z"
        fill="#0016EC" />
</svg>